<svg xmlns="http://www.w3.org/2000/svg" viewBox="0 0 192 192" role="img" aria-label="Nestforge RegCraft">
  <!-- Brand background -->
  <defs>
    <linearGradient id="bg" x1="0" y1="0" x2="1" y2="1">
      <stop offset="0" stop-color="#0ea5e9"/>
      <stop offset="1" stop-color="#0284c7"/>
    </linearGradient>
  </defs>
  <rect x="8" y="8" width="176" height="176" rx="28" fill="url(#bg)"/>

  <!-- Monogram: N -->
  <path fill="#fff" d="M36 142V50h18v49l40-49h18v92h-18V93l-40 49z"/>

  <!-- Monogram: R -->
  <path fill="#fff" d="M106 50h24c22 0 34 11 34 28 0 14-8 24-22 27l20 37h-20l-18-34h-10v34h-18V50zm18 16v24h10c10 0 14-5 14-12s-4-12-14-12h-10z"/>

  <!-- Regex cue: dot and star (.*) in corner -->
  <circle cx="152" cy="44" r="4" fill="#fff"/>
  <path fill="#fff" d="M164 36l2.8 5.8 6.4.9-4.6 4.6 1.1 6.4-5.7-3-5.7 3 1.1-6.4-4.6-4.6 6.4-.9L164 36z"/>
</svg>
